<mxfile host="app.diagrams.net" modified="2020-12-09T09:11:31.005Z" agent="5.0 (Windows NT 10.0; Win64; x64) AppleWebKit/537.36 (KHTML, like Gecko) Chrome/87.0.4280.88 Safari/537.36" etag="ptgMObchBuQxIRSec3vq" version="13.10.4" type="github">
  <diagram id="C5RBs43oDa-KdzZeNtuy" name="Page-1">
    <mxGraphModel dx="868" dy="482" grid="1" gridSize="10" guides="1" tooltips="1" connect="1" arrows="1" fold="1" page="1" pageScale="1" pageWidth="827" pageHeight="1169" math="0" shadow="0">
      <root>
        <mxCell id="WIyWlLk6GJQsqaUBKTNV-0" />
        <mxCell id="WIyWlLk6GJQsqaUBKTNV-1" parent="WIyWlLk6GJQsqaUBKTNV-0" />
        <mxCell id="G7k7l3nj8XJO_CQFKy6A-16" value="Extends" style="endArrow=block;endSize=16;endFill=0;html=1;entryX=0.5;entryY=1;entryDx=0;entryDy=0;exitX=0.5;exitY=0;exitDx=0;exitDy=0;" edge="1" parent="WIyWlLk6GJQsqaUBKTNV-1" source="G7k7l3nj8XJO_CQFKy6A-23" target="G7k7l3nj8XJO_CQFKy6A-17">
          <mxGeometry width="160" relative="1" as="geometry">
            <mxPoint x="558" y="410" as="sourcePoint" />
            <mxPoint x="410" y="410" as="targetPoint" />
          </mxGeometry>
        </mxCell>
        <mxCell id="G7k7l3nj8XJO_CQFKy6A-17" value="Customer" style="swimlane;fontStyle=2;align=center;verticalAlign=top;childLayout=stackLayout;horizontal=1;startSize=26;horizontalStack=0;resizeParent=1;resizeLast=0;collapsible=1;marginBottom=0;rounded=0;shadow=0;strokeWidth=1;" vertex="1" parent="WIyWlLk6GJQsqaUBKTNV-1">
          <mxGeometry x="240" y="80" width="280" height="316" as="geometry">
            <mxRectangle x="230" y="140" width="160" height="26" as="alternateBounds" />
          </mxGeometry>
        </mxCell>
        <mxCell id="G7k7l3nj8XJO_CQFKy6A-18" value="- type :String" style="text;align=left;verticalAlign=top;spacingLeft=4;spacingRight=4;overflow=hidden;rotatable=0;points=[[0,0.5],[1,0.5]];portConstraint=eastwest;" vertex="1" parent="G7k7l3nj8XJO_CQFKy6A-17">
          <mxGeometry y="26" width="280" height="26" as="geometry" />
        </mxCell>
        <mxCell id="G7k7l3nj8XJO_CQFKy6A-32" value="- height: int" style="text;align=left;verticalAlign=top;spacingLeft=4;spacingRight=4;overflow=hidden;rotatable=0;points=[[0,0.5],[1,0.5]];portConstraint=eastwest;" vertex="1" parent="G7k7l3nj8XJO_CQFKy6A-17">
          <mxGeometry y="52" width="280" height="28" as="geometry" />
        </mxCell>
        <mxCell id="G7k7l3nj8XJO_CQFKy6A-33" value="- width: int" style="text;align=left;verticalAlign=top;spacingLeft=4;spacingRight=4;overflow=hidden;rotatable=0;points=[[0,0.5],[1,0.5]];portConstraint=eastwest;rounded=0;shadow=0;html=0;" vertex="1" parent="G7k7l3nj8XJO_CQFKy6A-17">
          <mxGeometry y="80" width="280" height="26" as="geometry" />
        </mxCell>
        <mxCell id="G7k7l3nj8XJO_CQFKy6A-19" value="" style="line;html=1;strokeWidth=1;align=left;verticalAlign=middle;spacingTop=-1;spacingLeft=3;spacingRight=3;rotatable=0;labelPosition=right;points=[];portConstraint=eastwest;" vertex="1" parent="G7k7l3nj8XJO_CQFKy6A-17">
          <mxGeometry y="106" width="280" height="8" as="geometry" />
        </mxCell>
        <mxCell id="G7k7l3nj8XJO_CQFKy6A-20" value="+ Customer():void" style="text;align=left;verticalAlign=top;spacingLeft=4;spacingRight=4;overflow=hidden;rotatable=0;points=[[0,0.5],[1,0.5]];portConstraint=eastwest;" vertex="1" parent="G7k7l3nj8XJO_CQFKy6A-17">
          <mxGeometry y="114" width="280" height="26" as="geometry" />
        </mxCell>
        <mxCell id="G7k7l3nj8XJO_CQFKy6A-34" value="+ Customer(type:String, height:int, width:int):void" style="text;align=left;verticalAlign=top;spacingLeft=4;spacingRight=4;overflow=hidden;rotatable=0;points=[[0,0.5],[1,0.5]];portConstraint=eastwest;" vertex="1" parent="G7k7l3nj8XJO_CQFKy6A-17">
          <mxGeometry y="140" width="280" height="26" as="geometry" />
        </mxCell>
        <mxCell id="G7k7l3nj8XJO_CQFKy6A-21" value="+ SetType(type:String) : void" style="text;align=left;verticalAlign=top;spacingLeft=4;spacingRight=4;overflow=hidden;rotatable=0;points=[[0,0.5],[1,0.5]];portConstraint=eastwest;" vertex="1" parent="G7k7l3nj8XJO_CQFKy6A-17">
          <mxGeometry y="166" width="280" height="24" as="geometry" />
        </mxCell>
        <mxCell id="G7k7l3nj8XJO_CQFKy6A-22" value="+ GetType() : String" style="text;align=left;verticalAlign=top;spacingLeft=4;spacingRight=4;overflow=hidden;rotatable=0;points=[[0,0.5],[1,0.5]];portConstraint=eastwest;" vertex="1" parent="G7k7l3nj8XJO_CQFKy6A-17">
          <mxGeometry y="190" width="280" height="26" as="geometry" />
        </mxCell>
        <mxCell id="G7k7l3nj8XJO_CQFKy6A-35" value="+ SetHeight(height:int) : void" style="text;align=left;verticalAlign=top;spacingLeft=4;spacingRight=4;overflow=hidden;rotatable=0;points=[[0,0.5],[1,0.5]];portConstraint=eastwest;" vertex="1" parent="G7k7l3nj8XJO_CQFKy6A-17">
          <mxGeometry y="216" width="280" height="24" as="geometry" />
        </mxCell>
        <mxCell id="G7k7l3nj8XJO_CQFKy6A-36" value="+ GetHeight() : int" style="text;align=left;verticalAlign=top;spacingLeft=4;spacingRight=4;overflow=hidden;rotatable=0;points=[[0,0.5],[1,0.5]];portConstraint=eastwest;" vertex="1" parent="G7k7l3nj8XJO_CQFKy6A-17">
          <mxGeometry y="240" width="280" height="26" as="geometry" />
        </mxCell>
        <mxCell id="G7k7l3nj8XJO_CQFKy6A-37" value="+ SetWidth(width:int) : void" style="text;align=left;verticalAlign=top;spacingLeft=4;spacingRight=4;overflow=hidden;rotatable=0;points=[[0,0.5],[1,0.5]];portConstraint=eastwest;" vertex="1" parent="G7k7l3nj8XJO_CQFKy6A-17">
          <mxGeometry y="266" width="280" height="24" as="geometry" />
        </mxCell>
        <mxCell id="G7k7l3nj8XJO_CQFKy6A-38" value="+ GetWidth() : int" style="text;align=left;verticalAlign=top;spacingLeft=4;spacingRight=4;overflow=hidden;rotatable=0;points=[[0,0.5],[1,0.5]];portConstraint=eastwest;" vertex="1" parent="G7k7l3nj8XJO_CQFKy6A-17">
          <mxGeometry y="290" width="280" height="26" as="geometry" />
        </mxCell>
        <mxCell id="G7k7l3nj8XJO_CQFKy6A-23" value="Wallpaper" style="swimlane;fontStyle=0;align=center;verticalAlign=top;childLayout=stackLayout;horizontal=1;startSize=26;horizontalStack=0;resizeParent=1;resizeLast=0;collapsible=1;marginBottom=0;rounded=0;shadow=0;strokeWidth=1;" vertex="1" parent="WIyWlLk6GJQsqaUBKTNV-1">
          <mxGeometry x="217.5" y="480" width="325" height="214" as="geometry">
            <mxRectangle x="550" y="140" width="160" height="26" as="alternateBounds" />
          </mxGeometry>
        </mxCell>
        <mxCell id="G7k7l3nj8XJO_CQFKy6A-24" value="+ size : int" style="text;align=left;verticalAlign=top;spacingLeft=4;spacingRight=4;overflow=hidden;rotatable=0;points=[[0,0.5],[1,0.5]];portConstraint=eastwest;" vertex="1" parent="G7k7l3nj8XJO_CQFKy6A-23">
          <mxGeometry y="26" width="325" height="26" as="geometry" />
        </mxCell>
        <mxCell id="G7k7l3nj8XJO_CQFKy6A-44" value="+ wallPurchase: int" style="text;align=left;verticalAlign=top;spacingLeft=4;spacingRight=4;overflow=hidden;rotatable=0;points=[[0,0.5],[1,0.5]];portConstraint=eastwest;" vertex="1" parent="G7k7l3nj8XJO_CQFKy6A-23">
          <mxGeometry y="52" width="325" height="26" as="geometry" />
        </mxCell>
        <mxCell id="G7k7l3nj8XJO_CQFKy6A-25" value="" style="line;html=1;strokeWidth=1;align=left;verticalAlign=middle;spacingTop=-1;spacingLeft=3;spacingRight=3;rotatable=0;labelPosition=right;points=[];portConstraint=eastwest;" vertex="1" parent="G7k7l3nj8XJO_CQFKy6A-23">
          <mxGeometry y="78" width="325" height="8" as="geometry" />
        </mxCell>
        <mxCell id="G7k7l3nj8XJO_CQFKy6A-26" value="+ Wallpaper() : void" style="text;align=left;verticalAlign=top;spacingLeft=4;spacingRight=4;overflow=hidden;rotatable=0;points=[[0,0.5],[1,0.5]];portConstraint=eastwest;" vertex="1" parent="G7k7l3nj8XJO_CQFKy6A-23">
          <mxGeometry y="86" width="325" height="26" as="geometry" />
        </mxCell>
        <mxCell id="G7k7l3nj8XJO_CQFKy6A-40" value="+ Wallpaper(type:String, height:int, width:int, size:int) : void" style="text;align=left;verticalAlign=top;spacingLeft=4;spacingRight=4;overflow=hidden;rotatable=0;points=[[0,0.5],[1,0.5]];portConstraint=eastwest;" vertex="1" parent="G7k7l3nj8XJO_CQFKy6A-23">
          <mxGeometry y="112" width="325" height="26" as="geometry" />
        </mxCell>
        <mxCell id="G7k7l3nj8XJO_CQFKy6A-41" value="+ SetSize(size:int) : void" style="text;align=left;verticalAlign=top;spacingLeft=4;spacingRight=4;overflow=hidden;rotatable=0;points=[[0,0.5],[1,0.5]];portConstraint=eastwest;" vertex="1" parent="G7k7l3nj8XJO_CQFKy6A-23">
          <mxGeometry y="138" width="325" height="24" as="geometry" />
        </mxCell>
        <mxCell id="G7k7l3nj8XJO_CQFKy6A-42" value="+ GetSize() : int" style="text;align=left;verticalAlign=top;spacingLeft=4;spacingRight=4;overflow=hidden;rotatable=0;points=[[0,0.5],[1,0.5]];portConstraint=eastwest;" vertex="1" parent="G7k7l3nj8XJO_CQFKy6A-23">
          <mxGeometry y="162" width="325" height="26" as="geometry" />
        </mxCell>
        <mxCell id="G7k7l3nj8XJO_CQFKy6A-43" value="+ GetWallPurchase() : String" style="text;align=left;verticalAlign=top;spacingLeft=4;spacingRight=4;overflow=hidden;rotatable=0;points=[[0,0.5],[1,0.5]];portConstraint=eastwest;" vertex="1" parent="G7k7l3nj8XJO_CQFKy6A-23">
          <mxGeometry y="188" width="325" height="26" as="geometry" />
        </mxCell>
      </root>
    </mxGraphModel>
  </diagram>
</mxfile>
